<svg width="512" height="512" viewBox="0 0 512 512" fill="none" xmlns="http://www.w3.org/2000/svg">
<path d="M138.9 220L46.1 357C43.4 361.4 46.2 367.1 51.3 367.7L234.3 387.1L138.9 220ZM51.6 308.2L117.8 200.7L50.4 160.3C48.1 158.9 45.1 160.6 45.1 163.3V306.4C45.1 309.9 49.7 311.3 51.6 308.2ZM61.1 403.3L232 480.3C236.7 482.5 242 479 242 473.9V416.2L63 396.6C59.1 396.2 57.6 401.6 61.1 403.3ZM132.5 176.7L202.8 51.1C206.6 44.9 199.6 37.7 193.3 41.3L60.7 128C58.5 129.4 58.6 132.6 60.8 134L132.5 176.7ZM256 185.7H352L268 37.7C265.2 33.2 260.6 31 256 31C251.4 31 246.8 33.2 244 37.7L160 185.7H256ZM461.6 160.3L394.2 200.7L460.4 308.2C462.3 311.2 466.9 309.9 466.9 306.4V163.3C466.9 160.6 464 158.9 461.6 160.3ZM379.5 176.7L451.2 133.9C453.4 132.6 453.5 129.4 451.3 127.9L318.7 41.3C312.4 37.7 305.4 44.9 309.2 51.1L379.5 176.7ZM449 396.6L270.1 416.2V474C270.1 479.1 275.4 482.5 280.1 480.4L451 403.4C454.4 401.6 452.9 396.2 449 396.6ZM373.1 220L277.6 387.1L460.6 367.7C465.7 367.1 468.5 361.4 465.8 357L373.1 220ZM256 213.8H167.7L256 368.3L344.3 213.8H256Z" fill="white"/>
</svg>
